<?xml version="1.0" encoding="iso-8859-1"?>
<!-- Uploaded to: SVG Repo, www.svgrepo.com, Generator: SVG Repo Mixer Tools -->
<svg height="800px" width="800px" version="1.1" id="Layer_1" xmlns="http://www.w3.org/2000/svg" xmlns:xlink="http://www.w3.org/1999/xlink" 
	 viewBox="0 0 503.467 503.467" xml:space="preserve">
<g transform="translate(5 1)">
	<path style="fill:#F2EDDA;" d="M460.067,122.733v341.333c0,18.773-15.36,34.133-34.133,34.133h-358.4
		c-18.773,0-34.133-15.36-34.133-34.133V37.4c0-18.773,15.36-34.133,34.133-34.133H340.6V88.6c0,18.773,15.36,34.133,34.133,34.133
		H460.067z"/>
	<path style="fill:#FFD0A1;" d="M460.067,122.733h-85.333c-18.773,0-34.133-15.36-34.133-34.133V3.267L460.067,122.733z"/>
	<path style="fill:#C49AE9;" d="M268.067,313.027c2.56,6.827,4.267,13.653,4.267,21.333c0,33.28-26.453,59.733-59.733,59.733
		h-59.733V334.36c0-33.28,26.453-59.733,59.733-59.733c7.68,0,15.36,1.707,21.333,4.267
		C250.147,285.72,262.093,297.667,268.067,313.027"/>
	<path style="fill:#ECF4F7;" d="M268.067,313.027c-5.973-15.36-18.773-28.16-34.133-34.133l0,0l63.147-63.147
		c0,0,17.067-17.067,34.133,0c17.067,17.067,0,34.133,0,34.133L268.067,313.027L268.067,313.027z"/>
</g>
<path style="fill:#51565F;" d="M430.933,503.467h-358.4c-21.333,0-38.4-17.067-38.4-38.4V38.4C34.133,17.067,51.2,0,72.533,0H345.6
	c0.853,0,2.56,0.853,3.413,0.853l85.333,85.333c1.707,1.707,1.707,4.267,0,5.973c-1.707,1.707-4.267,1.707-5.973,0l-84.48-84.48
	H72.533c-16.213,0-29.867,13.653-29.867,29.867v426.667c0,16.213,13.653,29.867,29.867,29.867h358.4
	c16.213,0,29.867-13.653,29.867-29.867V127.147h-81.067c-21.333,0-38.4-17.067-38.4-38.4V46.08c0-2.56,1.707-4.267,4.267-4.267
	s4.267,1.707,4.267,4.267v42.667c0,16.213,13.653,29.867,29.867,29.867h85.333c2.56,0,4.267,1.707,4.267,4.267v341.333
	C469.333,486.4,452.267,503.467,430.933,503.467z M217.6,401.067h-59.733c-2.56,0-4.267-1.707-4.267-4.267v-59.733
	c0-34.987,29.013-64,64-64s64,29.013,64,64S252.587,401.067,217.6,401.067z M162.133,392.533H217.6
	c30.72,0,55.467-24.747,55.467-55.467S248.32,281.6,217.6,281.6s-55.467,24.747-55.467,55.467V392.533z M243.2,341.333
	c-2.56,0-4.267-1.707-4.267-4.267c0-11.947-9.387-21.333-21.333-21.333c-2.56,0-4.267-1.707-4.267-4.267
	c0-2.56,1.707-4.267,4.267-4.267c16.213,0,29.867,13.653,29.867,29.867C247.467,339.627,245.76,341.333,243.2,341.333z
	 M298.667,294.4c-0.853,0-2.56,0-3.413-0.853c-1.707-1.707-1.707-4.267,0-5.973l38.4-38.4c1.707-1.707,13.653-14.507,0-28.16
	c-13.653-13.653-26.453-1.707-28.16,0l-38.4,38.4c-1.707,1.707-4.267,1.707-5.973,0c-1.707-1.707-1.707-4.267,0-5.973l38.4-38.4
	c6.827-6.827,24.747-15.36,40.107,0c16.213,16.213,6.827,33.28,0,40.107l-38.4,38.4C300.373,294.4,299.52,294.4,298.667,294.4z"/>
</svg>