<?xml version="1.0" encoding="iso-8859-1"?>
<!-- Uploaded to: SVG Repo, www.svgrepo.com, Generator: SVG Repo Mixer Tools -->
<svg height="800px" width="800px" version="1.1" id="Layer_1" xmlns="http://www.w3.org/2000/svg" xmlns:xlink="http://www.w3.org/1999/xlink" 
	 viewBox="0 0 503.467 503.467" xml:space="preserve">
<g transform="translate(5 1)">
	<path style="fill:#F2EDDA;" d="M460.067,122.733v341.333c0,18.773-15.36,34.133-34.133,34.133h-358.4
		c-18.773,0-34.133-15.36-34.133-34.133V37.4c0-18.773,15.36-34.133,34.133-34.133H340.6V88.6c0,18.773,15.36,34.133,34.133,34.133
		H460.067z"/>
	<path style="fill:#FFD0A1;" d="M460.067,122.733h-85.333c-18.773,0-34.133-15.36-34.133-34.133V3.267L460.067,122.733z"/>
	<polygon style="fill:#AAB1BA;" points="289.4,191 246.733,233.667 246.733,233.667 315,301.933 357.667,259.267 	"/>
	<path style="fill:#80D6FA;" d="M209.187,339.48c3.413,3.413,7.68,5.12,11.947,5.12c9.387,0,17.067-7.68,17.067-17.067
		s-7.68-17.067-17.067-17.067s-17.067,7.68-17.067,17.067C204.067,332.653,205.773,336.92,209.187,339.48 M135.8,412.867
		c0,0,34.133-93.867,34.133-170.667c42.667,8.533,76.8-8.533,76.8-8.533L315,301.933c0,0-17.067,34.133-8.533,76.8
		C229.667,378.733,135.8,412.867,135.8,412.867"/>
</g>
<path style="fill:#51565F;" d="M430.933,503.467h-358.4c-21.333,0-38.4-17.067-38.4-38.4V38.4C34.133,17.067,51.2,0,72.533,0H345.6
	c0.853,0,2.56,0.853,3.413,0.853l85.333,85.333c1.707,1.707,1.707,4.267,0,5.973c-1.707,1.707-4.267,1.707-5.973,0l-84.48-84.48
	H72.533c-16.213,0-29.867,13.653-29.867,29.867v426.667c0,16.213,13.653,29.867,29.867,29.867h358.4
	c16.213,0,29.867-13.653,29.867-29.867V127.147h-81.067c-21.333,0-38.4-17.067-38.4-38.4V46.08c0-2.56,1.707-4.267,4.267-4.267
	s4.267,1.707,4.267,4.267v42.667c0,16.213,13.653,29.867,29.867,29.867h85.333c2.56,0,4.267,1.707,4.267,4.267v341.333
	C469.333,486.4,452.267,503.467,430.933,503.467z M140.8,418.133L140.8,418.133L140.8,418.133L140.8,418.133
	c-0.853,0-2.56-0.853-3.413-0.853c-0.853-0.853-0.853-1.707-0.853-2.56l0,0l0,0c0,0,0,0,0-0.853v-0.853
	c0.853-3.413,34.133-94.72,34.133-168.96c0-0.853,0.853-2.56,1.707-3.413c0.853-0.853,2.56-0.853,3.413-0.853
	c40.96,8.533,73.387-7.68,74.24-8.533c1.707-0.853,3.413-0.853,5.12,0.853l42.667,42.667c1.707,1.707,1.707,4.267,0,5.973
	c-1.707,1.707-4.267,1.707-5.973,0l-40.96-40.96c-8.533,3.413-36.693,13.653-71.68,8.533
	c-0.853,55.467-18.773,119.467-29.013,150.187l58.027-58.027c-2.56-3.413-3.413-7.68-3.413-11.947
	c0-11.947,9.387-21.333,21.333-21.333c11.947,0,21.333,9.387,21.333,21.333s-9.387,21.333-21.333,21.333
	c-4.267,0-8.533-1.707-11.947-3.413L156.16,404.48c29.867-9.387,93.867-27.307,150.187-28.16c-6.827-40.96,9.387-73.387,9.387-74.24
	l0.853-0.853l39.253-39.253l-62.293-62.293l-17.92,17.92c-1.707,1.707-4.267,1.707-5.973,0c-1.707-1.707-1.707-4.267,0-5.973
	l21.333-21.333c1.707-1.707,4.267-1.707,5.973,0l68.267,68.267c1.707,1.707,1.707,4.267,0,5.973l-41.813,41.813
	c-1.707,4.267-15.36,35.84-7.68,73.387c0,0.853,0,2.56-0.853,3.413c-0.853,0.853-1.707,1.707-3.413,1.707
	c-74.24,0-165.547,32.427-168.96,34.133C141.653,418.133,141.653,418.133,140.8,418.133L140.8,418.133
	C141.653,418.133,141.653,418.133,140.8,418.133L140.8,418.133z M217.6,337.92c2.56,1.707,5.12,3.413,8.533,3.413
	c6.827,0,12.8-5.973,12.8-12.8s-5.973-12.8-12.8-12.8s-12.8,5.973-12.8,12.8c0,3.413,0.853,5.973,3.413,8.533
	C216.747,337.067,216.747,337.067,217.6,337.92L217.6,337.92z"/>
</svg>