<?xml version="1.0" encoding="iso-8859-1"?>
<!-- Uploaded to: SVG Repo, www.svgrepo.com, Generator: SVG Repo Mixer Tools -->
<svg height="800px" width="800px" version="1.1" id="Layer_1" xmlns="http://www.w3.org/2000/svg" xmlns:xlink="http://www.w3.org/1999/xlink" 
	 viewBox="0 0 503.82 503.82" xml:space="preserve">
<g transform="translate(5 1)">
	<path style="fill:#F2EDDA;" d="M460.655,123.087V464.42c0,18.773-15.36,34.133-34.133,34.133h-358.4
		c-18.773,0-34.133-15.36-34.133-34.133V37.753c0-18.773,15.36-34.133,34.133-34.133h273.067v85.333
		c0,18.773,15.36,34.133,34.133,34.133H460.655z"/>
	<path style="fill:#FFD0A1;" d="M460.655,123.087h-85.333c-18.773,0-34.133-15.36-34.133-34.133V3.62L460.655,123.087z"/>
	<polygon style="fill:#ECF4F7;" points="375.321,191.354 375.321,310.82 119.321,310.82 119.321,191.354 	"/>
	<polygon style="fill:#50DD8E;" points="375.321,310.82 170.521,310.82 230.255,251.087 255.855,276.687 298.521,234.02 	"/>
	<path style="fill:#FFE079;" d="M161.988,225.487c4.267,0,8.533,4.267,8.533,8.533c0,4.267-4.267,8.533-8.533,8.533
		s-8.533-4.267-8.533-8.533C153.455,229.753,157.721,225.487,161.988,225.487"/>
</g>
<path style="fill:#51565F;" d="M431.521,503.82h-358.4c-21.333,0-38.4-17.067-38.4-38.4V38.753c0-21.333,17.067-38.4,38.4-38.4
	h238.933c2.56,0,4.267,1.707,4.267,4.267s-1.707,4.267-4.267,4.267H73.121c-16.213,0-29.867,13.653-29.867,29.867V465.42
	c0,16.213,13.653,29.867,29.867,29.867h358.4c16.213,0,29.867-13.653,29.867-29.867V125.794L350.455,14.86v75.093
	c0,17.067,12.8,29.867,29.867,29.867h34.133c2.56,0,4.267,1.707,4.267,4.267s-1.707,4.267-4.267,4.267h-34.133
	c-21.333,0-38.4-17.067-38.4-38.4V4.62c0-1.707,0.853-3.413,2.56-4.267s3.413,0,4.267,0.853l119.467,119.467
	c0.853,0.853,0.853,1.707,0.853,3.413V465.42C469.921,486.754,452.855,503.82,431.521,503.82z M363.255,418.487H243.788
	c-2.56,0-4.267-1.707-4.267-4.267c0-2.56,1.707-4.267,4.267-4.267h119.467c2.56,0,4.267,1.707,4.267,4.267
	C367.521,416.78,365.815,418.487,363.255,418.487z M209.655,418.487h-85.333c-2.56,0-4.267-1.707-4.267-4.267
	c0-2.56,1.707-4.267,4.267-4.267h85.333c2.56,0,4.267,1.707,4.267,4.267C213.921,416.78,212.215,418.487,209.655,418.487z
	 M380.321,367.287h-51.2c-2.56,0-4.267-1.707-4.267-4.267s1.707-4.267,4.267-4.267h51.2c2.56,0,4.267,1.707,4.267,4.267
	S382.881,367.287,380.321,367.287z M294.988,367.287h-85.333c-2.56,0-4.267-1.707-4.267-4.267s1.707-4.267,4.267-4.267h85.333
	c2.56,0,4.267,1.707,4.267,4.267S297.548,367.287,294.988,367.287z M175.521,367.287h-51.2c-2.56,0-4.267-1.707-4.267-4.267
	s1.707-4.267,4.267-4.267h51.2c2.56,0,4.267,1.707,4.267,4.267S178.081,367.287,175.521,367.287z M380.321,316.087h-153.6
	c-2.56,0-4.267-1.707-4.267-4.267c0-2.56,1.707-4.267,4.267-4.267h149.333V196.62H128.588v110.933h45.227l58.88-58.88
	c1.707-1.707,4.267-1.707,5.973,0l22.187,22.187l39.253-39.253c1.707-1.707,4.267-1.707,5.973,0l42.667,42.667
	c1.707,1.707,1.707,4.267,0,5.973c-1.707,1.707-4.267,1.707-5.973,0l-39.253-39.253l-39.253,39.253
	c-1.707,1.707-4.267,1.707-5.973,0l-22.187-22.187l-56.32,56.32c-0.853,0.853-1.707,0.853-3.413,0.853h-51.2
	c-2.56,0-4.267-1.707-4.267-4.267V191.5c0-2.56,1.707-4.267,4.267-4.267h256c2.56,0,4.267,1.707,4.267,4.267v119.467
	C384.588,314.38,382.881,316.087,380.321,316.087z M166.988,247.82c-6.827,0-12.8-5.973-12.8-12.8c0-6.827,5.973-12.8,12.8-12.8
	s12.8,5.973,12.8,12.8C179.788,241.847,173.815,247.82,166.988,247.82z M166.988,230.753c-2.56,0-4.267,1.707-4.267,4.267
	c0,2.56,1.707,4.267,4.267,4.267s4.267-1.707,4.267-4.267C171.255,232.46,169.548,230.753,166.988,230.753z M209.655,145.42h-85.333
	c-2.56,0-4.267-1.707-4.267-4.267c0-2.56,1.707-4.267,4.267-4.267h85.333c2.56,0,4.267,1.707,4.267,4.267
	C213.921,143.713,212.215,145.42,209.655,145.42z"/>
</svg>