<?xml version="1.0" encoding="iso-8859-1"?>
<!-- Uploaded to: SVG Repo, www.svgrepo.com, Generator: SVG Repo Mixer Tools -->
<svg height="800px" width="800px" version="1.1" id="Layer_1" xmlns="http://www.w3.org/2000/svg" xmlns:xlink="http://www.w3.org/1999/xlink" 
	 viewBox="0 0 503.467 503.467" xml:space="preserve">
<g transform="translate(5 1)">
	<path style="fill:#F2EDDA;" d="M460.067,122.733v341.333c0,18.773-15.36,34.133-34.133,34.133h-358.4
		c-18.773,0-34.133-15.36-34.133-34.133V37.4c0-18.773,15.36-34.133,34.133-34.133H340.6V88.6c0,18.773,15.36,34.133,34.133,34.133
		H460.067z"/>
	<path style="fill:#FFD0A1;" d="M460.067,122.733h-85.333c-18.773,0-34.133-15.36-34.133-34.133V3.267L460.067,122.733z"/>
	<circle style="fill:#FF7474;" cx="246.733" cy="276.333" r="8.533"/>
</g>
<path style="fill:#51565F;" d="M430.933,503.467h-358.4c-21.333,0-38.4-17.067-38.4-38.4V38.4C34.133,17.067,51.2,0,72.533,0H345.6
	c0.853,0,2.56,0.853,3.413,0.853l85.333,85.333c1.707,1.707,1.707,4.267,0,5.973c-1.707,1.707-4.267,1.707-5.973,0l-84.48-84.48
	H72.533c-16.213,0-29.867,13.653-29.867,29.867v426.667c0,16.213,13.653,29.867,29.867,29.867h358.4
	c16.213,0,29.867-13.653,29.867-29.867V127.147h-81.067c-21.333,0-38.4-17.067-38.4-38.4V46.08c0-2.56,1.707-4.267,4.267-4.267
	s4.267,1.707,4.267,4.267v42.667c0,16.213,13.653,29.867,29.867,29.867h85.333c2.56,0,4.267,1.707,4.267,4.267v341.333
	C469.333,486.4,452.267,503.467,430.933,503.467z M311.467,384c-2.56,0-4.267-1.707-4.267-4.267c0-2.56,1.707-4.267,4.267-4.267
	s12.8-0.853,12.8-12.8v-25.6c0-0.853,0-16.213,13.653-25.6c-13.653-12.8-13.653-40.96-13.653-42.667v-8.533
	c0-11.947-11.093-12.8-12.8-12.8c-2.56,0-4.267-1.707-4.267-4.267s1.707-4.267,4.267-4.267c7.68,0,21.333,4.267,21.333,21.333v8.533
	c0,8.533,2.56,32.427,14.507,39.253c1.707,0.853,2.56,2.56,2.56,3.413c0,0.853-0.853,3.413-2.56,3.413
	c-14.507,7.68-14.507,21.333-14.507,22.187v25.6C332.8,379.733,319.147,384,311.467,384z M192,384
	c-7.68,0-21.333-4.267-21.333-21.333v-25.6c0-0.853,0-14.507-14.507-22.187c-1.707-0.853-2.56-2.56-2.56-3.413
	c0-0.853,0.853-3.413,2.56-3.413c11.947-5.973,14.507-29.867,14.507-39.253v-8.533c0-17.067,13.653-21.333,21.333-21.333
	c2.56,0,4.267,1.707,4.267,4.267s-1.707,4.267-4.267,4.267s-12.8,0.853-12.8,12.8v8.533c0,1.707,0,29.013-13.653,42.667
	c13.653,10.24,13.653,24.747,13.653,25.6v25.6c0,11.947,11.093,12.8,12.8,12.8c2.56,0,4.267,1.707,4.267,4.267
	C196.267,382.293,194.56,384,192,384z M251.733,349.867c-0.853,0-1.707,0-1.707-0.853c-1.707-0.853-2.56-3.413-1.707-5.973
	c7.68-15.36,0-29.867,0-30.72c-0.853-1.707,0-4.267,1.707-5.973c1.707-0.853,4.267,0,5.973,1.707c0,0.853,9.387,18.773,0,37.547
	C255.147,349.013,253.44,349.867,251.733,349.867z M251.733,290.133c-6.827,0-12.8-5.973-12.8-12.8s5.973-12.8,12.8-12.8
	c6.827,0,12.8,5.973,12.8,12.8S258.56,290.133,251.733,290.133z M251.733,273.067c-2.56,0-4.267,1.707-4.267,4.267
	s1.707,4.267,4.267,4.267c2.56,0,4.267-1.707,4.267-4.267S254.293,273.067,251.733,273.067z"/>
</svg>