<?xml version="1.0" encoding="iso-8859-1"?>
<!-- Uploaded to: SVG Repo, www.svgrepo.com, Generator: SVG Repo Mixer Tools -->
<svg height="800px" width="800px" version="1.1" id="Layer_1" xmlns="http://www.w3.org/2000/svg" xmlns:xlink="http://www.w3.org/1999/xlink" 
	 viewBox="0 0 503.467 503.467" xml:space="preserve">
<g transform="translate(5 1)">
	<path style="fill:#F2EDDA;" d="M460.067,122.733v341.333c0,18.773-15.36,34.133-34.133,34.133h-358.4
		c-18.773,0-34.133-15.36-34.133-34.133V37.4c0-18.773,15.36-34.133,34.133-34.133H340.6V88.6c0,18.773,15.36,34.133,34.133,34.133
		H460.067z"/>
	<path style="fill:#FFD0A1;" d="M460.067,122.733h-85.333c-18.773,0-34.133-15.36-34.133-34.133V3.267L460.067,122.733z"/>
	<polygon style="fill:#80D6FA;" points="246.733,242.2 221.133,267.8 223.693,270.36 246.733,293.4 269.773,270.36 272.333,267.8 	
		"/>
	<path style="fill:#FFE079;" d="M135.8,378.733h-17.067v34.133h34.133v-34.133H135.8z M357.667,378.733H340.6v34.133h34.133v-34.133
		H357.667z"/>
</g>
<path style="fill:#51565F;" d="M430.933,503.467h-358.4c-21.333,0-38.4-17.067-38.4-38.4V38.4C34.133,17.067,51.2,0,72.533,0H345.6
	c0.853,0,2.56,0.853,3.413,0.853l85.333,85.333c1.707,1.707,1.707,4.267,0,5.973c-1.707,1.707-4.267,1.707-5.973,0l-84.48-84.48
	H72.533c-16.213,0-29.867,13.653-29.867,29.867v426.667c0,16.213,13.653,29.867,29.867,29.867h358.4
	c16.213,0,29.867-13.653,29.867-29.867V127.147h-81.067c-21.333,0-38.4-17.067-38.4-38.4V46.08c0-2.56,1.707-4.267,4.267-4.267
	s4.267,1.707,4.267,4.267v42.667c0,16.213,13.653,29.867,29.867,29.867h85.333c2.56,0,4.267,1.707,4.267,4.267v341.333
	C469.333,486.4,452.267,503.467,430.933,503.467z M379.733,418.133H345.6c-2.56,0-4.267-1.707-4.267-4.267v-34.133
	c0-2.56,1.707-4.267,4.267-4.267h12.8c-1.707-46.933-35.84-87.893-81.92-99.84l-21.333,21.333c-1.707,1.707-4.267,1.707-5.973,0
	l-21.333-21.333c-46.08,11.093-80.213,52.053-81.92,99.84h12.8c2.56,0,4.267,1.707,4.267,4.267v34.133
	c0,2.56-1.707,4.267-4.267,4.267h-34.133c-2.56,0-4.267-1.707-4.267-4.267v-34.133c0-2.56,1.707-4.267,4.267-4.267h12.8
	c1.707-45.227,30.72-85.333,72.533-102.4h-64c-1.707,5.12-6.827,8.533-11.947,8.533c-6.827,0-12.8-5.973-12.8-12.8
	s5.973-12.8,12.8-12.8c5.973,0,10.24,3.413,11.947,8.533h80.213l24.747-24.747c1.707-1.707,4.267-1.707,5.973,0l24.747,24.747
	h80.213c1.707-5.12,6.827-8.533,11.947-8.533c6.827,0,12.8,5.973,12.8,12.8s-5.973,12.8-12.8,12.8
	c-5.973,0-10.24-3.413-11.947-8.533H296.96c41.813,17.067,70.827,57.173,72.533,102.4h12.8c2.56,0,4.267,1.707,4.267,4.267v34.133
	C384,416.427,382.293,418.133,379.733,418.133z M349.867,409.6h25.6V384h-25.6V409.6z M128,409.6h25.6V384H128V409.6z
	 M232.107,268.8l19.627,19.627L271.36,268.8l-19.627-19.627L232.107,268.8z M371.2,264.533c-2.56,0-4.267,1.707-4.267,4.267
	s1.707,4.267,4.267,4.267s4.267-1.707,4.267-4.267S373.76,264.533,371.2,264.533z M132.267,264.533c-2.56,0-4.267,1.707-4.267,4.267
	s1.707,4.267,4.267,4.267c2.56,0,4.267-1.707,4.267-4.267S134.827,264.533,132.267,264.533z"/>
</svg>